<svg width="1280" height="420" viewBox="0 0 1280 420" fill="none" xmlns="http://www.w3.org/2000/svg" role="img" aria-labelledby="title desc">
  <title id="title">CDGDG - AI Agent Product Engineer</title>
  <desc id="desc">A portfolio banner with connected agent nodes and product engineering labels.</desc>
  <defs>
    <linearGradient id="bg" x1="0" y1="0" x2="1280" y2="420" gradientUnits="userSpaceOnUse">
      <stop offset="0" stop-color="#0B1020"/>
      <stop offset="0.48" stop-color="#111827"/>
      <stop offset="1" stop-color="#172554"/>
    </linearGradient>
    <linearGradient id="accent" x1="140" y1="80" x2="1140" y2="350" gradientUnits="userSpaceOnUse">
      <stop stop-color="#38BDF8"/>
      <stop offset="0.42" stop-color="#A7F3D0"/>
      <stop offset="1" stop-color="#FDE68A"/>
    </linearGradient>
    <filter id="glow" x="-40%" y="-40%" width="180%" height="180%" color-interpolation-filters="sRGB">
      <feGaussianBlur stdDeviation="8" result="blur"/>
      <feColorMatrix in="blur" type="matrix" values="0 0 0 0 0.22 0 0 0 0 0.74 0 0 0 0 0.98 0 0 0 0.5 0"/>
      <feMerge>
        <feMergeNode/>
        <feMergeNode in="SourceGraphic"/>
      </feMerge>
    </filter>
  </defs>

  <rect width="1280" height="420" rx="32" fill="url(#bg)"/>
  <path d="M96 300C194 178 314 274 420 170C512 80 620 116 708 214C820 338 944 204 1184 128" stroke="url(#accent)" stroke-width="2.5" stroke-linecap="round" opacity="0.8"/>
  <path d="M112 146C254 78 354 144 462 230C604 344 740 76 876 156C994 226 1044 306 1170 260" stroke="#93C5FD" stroke-width="1.5" stroke-linecap="round" opacity="0.35"/>
  <path d="M154 337C300 262 378 328 514 274C686 206 780 324 908 236C1020 159 1082 184 1170 102" stroke="#A7F3D0" stroke-width="1.5" stroke-linecap="round" opacity="0.34"/>

  <g filter="url(#glow)">
    <circle cx="146" cy="276" r="7" fill="#38BDF8"/>
    <circle cx="324" cy="236" r="6" fill="#A7F3D0"/>
    <circle cx="486" cy="150" r="8" fill="#FDE68A"/>
    <circle cx="720" cy="220" r="7" fill="#38BDF8"/>
    <circle cx="910" cy="222" r="6" fill="#A7F3D0"/>
    <circle cx="1130" cy="142" r="8" fill="#FDE68A"/>
  </g>

  <g opacity="0.68">
    <rect x="88" y="68" width="126" height="34" rx="17" fill="#FFFFFF" fill-opacity="0.08" stroke="#FFFFFF" stroke-opacity="0.16"/>
    <text x="151" y="91" text-anchor="middle" fill="#D1FAE5" font-family="ui-monospace, SFMono-Regular, Menlo, Monaco, Consolas, monospace" font-size="14">AGENTS</text>
    <rect x="1010" y="308" width="156" height="34" rx="17" fill="#FFFFFF" fill-opacity="0.08" stroke="#FFFFFF" stroke-opacity="0.16"/>
    <text x="1088" y="331" text-anchor="middle" fill="#DBEAFE" font-family="ui-monospace, SFMono-Regular, Menlo, Monaco, Consolas, monospace" font-size="14">VERIFY + SHIP</text>
  </g>

  <text x="90" y="176" fill="#F8FAFC" font-family="Inter, ui-sans-serif, system-ui, -apple-system, BlinkMacSystemFont, Segoe UI, sans-serif" font-size="76" font-weight="800" letter-spacing="0">CDGDG</text>
  <text x="94" y="224" fill="#BAE6FD" font-family="Inter, ui-sans-serif, system-ui, -apple-system, BlinkMacSystemFont, Segoe UI, sans-serif" font-size="28" font-weight="650" letter-spacing="0">AI Agent Product Engineer</text>
  <text x="94" y="270" fill="#CBD5E1" font-family="Inter, ui-sans-serif, system-ui, -apple-system, BlinkMacSystemFont, Segoe UI, sans-serif" font-size="20" letter-spacing="0">Apps · APIs · automation · verification loops · Obsidian-backed memory</text>

  <g transform="translate(90 318)">
    <rect width="152" height="38" rx="19" fill="#38BDF8" fill-opacity="0.12" stroke="#38BDF8" stroke-opacity="0.38"/>
    <text x="76" y="25" text-anchor="middle" fill="#E0F2FE" font-family="ui-monospace, SFMono-Regular, Menlo, Monaco, Consolas, monospace" font-size="14">Live telemetry</text>
  </g>
  <g transform="translate(258 318)">
    <rect width="116" height="38" rx="19" fill="#A7F3D0" fill-opacity="0.12" stroke="#A7F3D0" stroke-opacity="0.34"/>
    <text x="58" y="25" text-anchor="middle" fill="#D1FAE5" font-family="ui-monospace, SFMono-Regular, Menlo, Monaco, Consolas, monospace" font-size="14">API-backed</text>
  </g>
  <g transform="translate(390 318)">
    <rect width="132" height="38" rx="19" fill="#FDE68A" fill-opacity="0.12" stroke="#FDE68A" stroke-opacity="0.34"/>
    <text x="66" y="25" text-anchor="middle" fill="#FEF3C7" font-family="ui-monospace, SFMono-Regular, Menlo, Monaco, Consolas, monospace" font-size="14">Brain graph</text>
  </g>
</svg>
